# File created by Blade
# Date/Time:  Tue Jan 27 19:54:25 2015
# Frame Rate: 120.000 fps
#------------------------------------------------------
:FULLY-SPECIFIED
:DEGREES
3931
root 3.793324 35.032876 -2.143070 47.869888 -8.067370 -39.317078
Spine 1.006328 22.358449 8.639712
Head -51.502660 6.494899 16.583259
LeftShoulder -18.328741 -4.161523 38.462307
LeftArm -18.833631 -63.886953 -41.380789
LeftForeArm -80.197980 -0.000000 138.058515
LeftHand 9.559523 -0.000000 -37.119345
LeftHandThumb1 -26.253704 0.000000 33.147579
RightShoulder -11.273098 -5.760587 -15.040338
RightArm 22.444974 -37.525071 77.965907
RightForeArm -28.843979 -0.000000 20.965401
RightHand 17.906699 0.000000 13.777796
RightHandThumb1 -24.326973 -0.000000 -32.862282
LeftUpLeg -28.174800 14.195930 34.948150
LeftLeg -6.106790 -0.000000 0.000000
LeftFoot -10.815490 12.732199 -16.018127
LeftToeBase 20.284827 -0.000000 -0.000000
RightUpLeg 21.535412 -32.781794 -34.467795
RightLeg 112.150498 -0.000000 -0.000000
RightFoot 29.967035 -31.032199 28.291335
RightToeBase 18.239026 -0.000000 -0.000000
3932
root 3.806180 35.024117 -2.142634 47.727006 -8.286339 -39.201446
Spine 1.120977 22.272871 8.541801
Head -51.185448 6.533119 16.564057
LeftShoulder -18.383935 -4.140382 38.432988
LeftArm -18.756021 -63.726318 -41.562245
LeftForeArm -80.005892 -0.000000 138.058943
LeftHand 9.518252 0.000000 -37.136280
LeftHandThumb1 -26.253704 0.000000 33.147579
RightShoulder -11.262716 -5.757133 -15.106388
RightArm 22.468193 -37.569352 78.037719
RightForeArm -29.002467 -0.000000 21.092224
RightHand 17.929448 -0.000000 13.558528
RightHandThumb1 -24.326973 -0.000000 -32.862282
LeftUpLeg -27.989508 14.109769 34.736016
LeftLeg -6.154141 -0.000000 0.000000
LeftFoot -10.811416 12.792345 -15.979720
LeftToeBase 20.319149 -0.000000 -0.000000
RightUpLeg 21.195308 -32.677338 -34.105440
RightLeg 111.854690 -0.000000 -0.000000
RightFoot 29.883159 -31.100208 28.312980
RightToeBase 18.198369 -0.000000 -0.000000
3933
root 3.820142 35.011434 -2.140232 47.572271 -8.542242 -39.049816
Spine 1.230800 22.200291 8.397019
Head -50.854189 6.541541 16.504574
LeftShoulder -18.411139 -4.102780 38.371353
LeftArm -18.621666 -63.597012 -41.763892
LeftForeArm -79.804059 -0.000000 138.042127
LeftHand 9.516123 -0.000000 -37.185492
LeftHandThumb1 -26.253704 0.000000 33.147579
RightShoulder -11.256668 -5.783115 -15.178358
RightArm 22.530018 -37.596048 78.094955
RightForeArm -28.985758 -0.000000 21.189767
RightHand 17.936528 -0.000000 13.517197
RightHandThumb1 -24.326973 -0.000000 -32.862282
LeftUpLeg -27.778352 13.996239 34.483193
LeftLeg -6.209489 -0.000000 0.000000
LeftFoot -10.782388 12.816231 -15.857353
LeftToeBase 20.194119 -0.000000 -0.000000
RightUpLeg 20.896911 -32.574890 -33.880972
RightLeg 111.578570 -0.000000 -0.000000
RightFoot 29.985004 -31.073456 28.241950
RightToeBase 17.916689 -0.000000 -0.000000
3934
root 3.830749 35.001009 -2.138662 47.427278 -8.779132 -38.928965
Spine 1.310894 22.114925 8.266751
Head -50.479610 6.571422 16.520282
LeftShoulder -18.412053 -4.150043 38.351983
LeftArm -18.752789 -63.440178 -41.712710
LeftForeArm -79.638467 -0.000000 138.037713
LeftHand 9.464296 -0.000000 -37.173101
LeftHandThumb1 -26.253704 0.000000 33.147579
RightShoulder -11.198681 -5.642874 -15.259320
RightArm 22.368182 -37.644573 78.234762
RightForeArm -28.811102 -0.000000 21.336966
RightHand 17.958406 -0.000000 13.756090
RightHandThumb1 -24.326973 -0.000000 -32.862282
LeftUpLeg -27.560490 13.898509 34.276128
LeftLeg -6.293448 -0.000000 0.000000
LeftFoot -10.785770 12.902450 -15.878072
LeftToeBase 20.298653 -0.000000 -0.000000
RightUpLeg 20.624878 -32.528764 -33.602250
RightLeg 111.310896 -0.000000 -0.000000
RightFoot 29.571147 -31.339904 28.670207
RightToeBase 18.259968 -0.000000 -0.000000
3935
root 3.845432 34.986664 -2.136102 47.291807 -9.092010 -38.778808
Spine 1.367648 22.113136 8.061313
Head -50.110111 6.519773 16.525329
LeftShoulder -18.392333 -4.122771 38.302286
LeftArm -18.576154 -63.305851 -41.965249
LeftForeArm -79.432794 -0.000000 137.998890
LeftHand 9.513845 -0.000000 -37.258389
LeftHandThumb1 -26.253704 0.000000 33.147579
RightShoulder -11.198870 -5.610410 -15.326451
RightArm 22.342782 -37.739255 78.305738
RightForeArm -28.759458 0.000000 21.437253
RightHand 18.038082 -0.000000 13.754004
RightHandThumb1 -24.326973 -0.000000 -32.862282
LeftUpLeg -27.318955 13.794670 33.996543
LeftLeg -6.383346 -0.000000 0.000000
LeftFoot -10.776534 12.990474 -15.796362
LeftToeBase 20.211654 -0.000000 -0.000000
RightUpLeg 20.347006 -32.500532 -33.506211
RightLeg 111.061004 -0.000000 -0.000000
RightFoot 29.655126 -31.321977 28.352460
RightToeBase 18.152038 -0.000000 -0.000000
3936
root 3.860502 34.973089 -2.135367 47.156505 -9.347168 -38.606007
Spine 1.404612 22.066233 7.896283
Head -49.719923 6.474421 16.485171
LeftShoulder -18.361258 -4.075169 38.257848
LeftArm -18.309518 -63.187354 -42.344154
LeftForeArm -79.218090 -0.000000 137.953186
LeftHand 9.500858 -0.000000 -37.384276
LeftHandThumb1 -26.253704 0.000000 33.147579
RightShoulder -11.193787 -5.717332 -15.404138
RightArm 22.526222 -38.009393 78.248919
RightForeArm -29.144934 0.000000 21.452619
RightHand 17.980512 -0.000000 12.702074
RightHandThumb1 -24.326973 -0.000000 -32.862282
LeftUpLeg -27.145392 13.644516 33.740887
LeftLeg -6.442857 -0.000000 0.000000
LeftFoot -10.794520 13.129529 -15.809690
LeftToeBase 20.265761 -0.000000 -0.000000
RightUpLeg 20.091012 -32.528915 -33.355056
RightLeg 110.836316 -0.000000 -0.000000
RightFoot 29.573952 -31.412565 28.536579
RightToeBase 17.386317 -0.000000 -0.000000
3937
root 3.876116 34.965020 -2.135127 47.003822 -9.559132 -38.486434
Spine 1.507911 22.026796 7.837200
Head -49.397862 6.437641 16.431799
LeftShoulder -18.319173 -4.124832 38.214161
LeftArm -18.244173 -63.019553 -42.570315
LeftForeArm -79.030152 0.000000 137.939466
LeftHand 9.511814 0.000000 -37.479354
LeftHandThumb1 -26.253704 0.000000 33.147579
RightShoulder -11.155554 -5.587428 -15.537822
RightArm 22.468970 -38.428625 78.298742
RightForeArm -29.679092 -0.000000 21.396944
RightHand 17.802342 -0.000000 11.035514
RightHandThumb1 -24.326973 -0.000000 -32.862282
LeftUpLeg -26.962208 13.482416 33.575647
LeftLeg -6.457347 -0.000000 0.000000
LeftFoot -10.796482 13.195880 -15.781867
LeftToeBase 20.219757 -0.000000 -0.000000
RightUpLeg 19.785146 -32.553845 -33.042849
RightLeg 110.598471 -0.000000 -0.000000
RightFoot 29.538978 -31.454418 28.650875
RightToeBase 17.535299 -0.000000 -0.000000
3938
root 3.892529 34.955018 -2.135117 46.861434 -9.787718 -38.343392
Spine 1.584102 21.964192 7.740862
Head -49.069462 6.402316 16.368334
LeftShoulder -18.282593 -4.132237 38.134907
LeftArm -18.121157 -62.860047 -42.810408
LeftForeArm -78.896140 -0.000000 137.924781
LeftHand 9.483156 -0.000000 -37.509249
LeftHandThumb1 -26.253704 0.000000 33.147579
RightShoulder -11.101345 -5.550091 -15.673995
RightArm 22.458895 -38.530489 78.396044
RightForeArm -29.693891 -0.000000 21.367577
RightHand 17.708436 -0.000000 10.817126
RightHandThumb1 -24.326973 -0.000000 -32.862282
LeftUpLeg -26.798244 13.340396 33.360245
LeftLeg -6.476806 -0.000000 0.000000
LeftFoot -10.805851 13.286289 -15.764261
LeftToeBase 20.255277 -0.000000 -0.000000
RightUpLeg 19.516881 -32.638247 -32.865388
RightLeg 110.392703 -0.000000 -0.000000
RightFoot 29.524474 -31.440976 28.601843
RightToeBase 17.441723 -0.000000 -0.000000
